<svg width="46" height="46" viewBox="0 0 46 46" fill="none" xmlns="http://www.w3.org/2000/svg">
<g id="Property 1=Default">
<path id="Rectangle 1" d="M12.4631 13.3691C13.0045 7.95573 17.5597 3.83331 23 3.83331C28.4404 3.83331 32.9956 7.95573 33.537 13.3691L34.0863 18.8625C34.1115 19.1145 34.1241 19.2405 34.1385 19.3646C34.4147 21.7426 35.2322 24.0258 36.5282 26.0386C36.5958 26.1437 36.6661 26.249 36.8065 26.4597L38.457 28.9355C39.9239 31.1357 40.6573 32.2358 40.3753 33.1304C40.302 33.3627 40.1861 33.5793 40.0334 33.7691C39.4455 34.5 38.1233 34.5 35.479 34.5H10.5211C7.87673 34.5 6.55457 34.5 5.96665 33.7691C5.81397 33.5793 5.69804 33.3627 5.62481 33.1304C5.34282 32.2358 6.07623 31.1357 7.54304 28.9355L9.19355 26.4597C9.33402 26.249 9.40425 26.1437 9.47188 26.0386C10.7679 24.0258 11.5854 21.7426 11.8616 19.3646C11.876 19.2405 11.8886 19.1145 11.9138 18.8625L12.4631 13.3691Z" fill="#F1F4F6"/>
<path id="Ellipse 45" d="M19.2973 39.5397C19.5157 39.7435 19.997 39.9235 20.6665 40.052C21.3359 40.1804 22.1562 40.25 23 40.25C23.8439 40.25 24.6642 40.1804 25.3336 40.052C26.0031 39.9235 26.4844 39.7435 26.7028 39.5397" stroke="#F1F4F6" stroke-width="3.91667" stroke-linecap="round"/>
</g>
</svg>
