<svg width="34" height="34" viewBox="0 0 34 34" fill="none" xmlns="http://www.w3.org/2000/svg">
<g id="Group 1">
<path id="Subtract" fill-rule="evenodd" clip-rule="evenodd" d="M16.8279 1.10811C16.3293 1.03683 15.8202 1 15.3033 1C9.84746 1 5.26412 5.10229 4.66163 10.5247L4.17901 14.8683C3.93143 17.0965 3.20617 19.2452 2.05269 21.1676L0.944791 23.0141C0.440226 23.8551 0.187943 24.2755 0.0957947 24.6028C-0.28693 25.9621 0.511777 27.3728 1.87428 27.744C2.20233 27.8333 2.69268 27.8333 3.67338 27.8333H26.9332C27.9139 27.8333 28.4042 27.8333 28.7323 27.744C30.0948 27.3728 30.8935 25.9621 30.5107 24.6028C30.4186 24.2755 30.1663 23.8551 29.6617 23.0141L28.5538 21.1676C27.9898 20.2276 27.5282 19.2335 27.1747 18.2024C27.0514 18.2064 26.9276 18.2083 26.8033 18.2083C20.475 18.2083 15.3449 13.0783 15.3449 6.75C15.3449 4.69887 15.8839 2.77361 16.8279 1.10811ZM23.4952 4.81193C23.1614 5.38057 22.9699 6.04293 22.9699 6.75C22.9699 8.57043 24.2389 10.0945 25.9405 10.4859C25.6925 8.32425 24.8115 6.37398 23.4952 4.81193Z" fill="#F1F4F6"/>
<path id="Ellipse 45" d="M9.55322 27.8333C9.55322 28.5884 9.70195 29.3361 9.99092 30.0337C10.2799 30.7314 10.7034 31.3652 11.2374 31.8992C11.7713 32.4331 12.4052 32.8567 13.1028 33.1456C13.8004 33.4346 14.5481 33.5833 15.3032 33.5833C16.0583 33.5833 16.806 33.4346 17.5037 33.1456C18.2013 32.8567 18.8352 32.4331 19.3691 31.8992C19.903 31.3652 20.3266 30.7314 20.6155 30.0337C20.9045 29.3361 21.0532 28.5884 21.0532 27.8333L15.3032 27.8333H9.55322Z" fill="#F1F4F6"/>
<circle id="Ellipse 6" cx="26.8032" cy="6.74996" r="5.10417" fill="#FF0F0F" stroke="#FF0F0F" stroke-width="2.54167"/>
</g>
</svg>
